<?xml version="1.0" standalone="no"?>
<!DOCTYPE svg PUBLIC "-//W3C//DTD SVG 20010904//EN"
 "http://www.w3.org/TR/2001/REC-SVG-20010904/DTD/svg10.dtd">
<svg version="1.0" xmlns="http://www.w3.org/2000/svg"
 width="356.000000pt" height="87.000000pt" viewBox="0 0 356.000000 87.000000"
 preserveAspectRatio="xMidYMid meet">

<g transform="translate(0.000000,87.000000) scale(0.100000,-0.100000)"
fill="#000000" stroke="none">
<path d="M0 435 l0 -435 1780 0 1780 0 0 435 0 435 -1780 0 -1780 0 0 -435z
m534 326 c9 -14 9 -49 3 -121 -5 -53 -5 -58 3 -27 14 52 33 87 68 120 29 28
30 28 62 12 27 -14 31 -21 26 -41 -6 -22 -5 -24 13 -15 32 18 46 13 28 -7 -10
-10 -17 -23 -17 -29 0 -6 -11 -26 -24 -45 l-24 -36 63 5 c57 5 64 3 79 -18 9
-13 16 -29 16 -37 0 -15 -111 -69 -153 -75 -35 -4 -39 -19 -7 -27 42 -12 89
-39 100 -60 10 -19 -5 -70 -21 -70 -24 0 -119 25 -158 42 -41 17 -43 19 -25
33 15 12 16 14 3 15 -33 0 -37 -20 -16 -73 11 -29 21 -76 21 -106 1 -51 -1
-55 -27 -64 -22 -7 -33 -6 -44 6 -14 14 -18 13 -34 -6 l-19 -22 -29 31 c-33
36 -49 110 -31 144 15 28 8 34 -16 14 -10 -8 -13 -13 -6 -9 22 11 13 -6 -38
-71 -28 -34 -60 -66 -71 -69 -46 -15 -64 45 -33 111 9 19 20 31 25 28 5 -3 9
0 9 6 0 6 -8 9 -17 6 -10 -2 -37 -7 -60 -11 -36 -6 -42 -4 -48 14 -3 12 -4 25
0 31 4 6 -1 7 -10 3 -13 -4 -16 -1 -13 18 2 16 16 31 45 45 l42 21 -41 16
c-39 16 -40 17 -26 39 11 16 27 24 55 26 l40 3 -34 34 c-43 43 -43 78 1 83 45
5 71 -5 121 -48 59 -51 72 -52 17 -2 -39 37 -60 81 -48 101 11 18 75 25 94 10
9 -7 14 -9 10 -5 -10 12 10 36 29 36 8 0 24 11 35 25 20 25 71 35 82 16z m691
-155 c68 -29 88 -130 36 -188 -24 -27 -36 -32 -90 -36 l-61 -4 0 -59 0 -59
-40 0 -40 0 0 180 0 180 80 0 c47 0 95 -6 115 -14z m195 -131 l0 -145 70 0 70
0 0 -35 0 -35 -110 0 -110 0 0 180 0 180 40 0 40 0 0 -145z m479 -35 c43 -96
76 -178 74 -182 -2 -5 -20 -8 -39 -8 -29 0 -37 5 -51 35 l-17 35 -85 0 -86 0
-15 -33 c-11 -23 -23 -33 -44 -35 -16 -2 -33 1 -38 6 -5 5 21 77 69 186 l78
177 38 -3 38 -3 78 -175z m421 0 c0 -93 -4 -171 -9 -174 -4 -3 -62 65 -127
151 l-119 156 -3 -156 c-4 -220 -22 -205 -22 18 0 105 4 175 10 175 5 0 61
-68 125 -151 l115 -151 0 149 c0 82 3 153 6 156 19 18 24 -20 24 -173z m265
170 c4 -6 -13 -10 -44 -10 l-51 0 -2 -165 c-4 -223 -22 -225 -26 -2 l-2 167
-51 0 c-31 0 -48 4 -44 10 3 6 52 10 110 10 58 0 107 -4 110 -10z m504 -16
c30 -25 41 -54 21 -54 -5 0 -10 4 -10 10 0 5 -10 18 -22 30 -47 43 -138 14
-138 -44 0 -33 21 -52 95 -85 34 -16 69 -39 79 -52 46 -66 -4 -139 -96 -139
-41 0 -54 5 -79 29 -16 16 -29 37 -29 46 0 11 10 6 34 -19 29 -31 40 -36 80
-36 54 0 86 25 86 68 0 41 -17 58 -91 91 -72 31 -99 60 -99 102 0 39 51 79
100 79 27 0 48 -8 69 -26z m-289 -144 c80 -176 85 -190 72 -190 -5 0 -19 22
-30 50 l-21 50 -99 0 -99 0 -23 -50 c-13 -28 -28 -50 -33 -50 -11 0 -11 1 75
193 39 87 75 156 80 155 5 -2 40 -73 78 -158z"/>
<path d="M432 690 c0 -14 2 -19 5 -12 2 6 2 18 0 25 -3 6 -5 1 -5 -13z"/>
<path d="M656 545 c-11 -8 -15 -15 -9 -15 6 0 16 7 23 15 16 19 11 19 -14 0z"/>
<path d="M453 528 c1 -26 4 -28 45 -26 23 1 38 4 32 8 -6 4 -22 5 -36 2 -18
-3 -26 1 -33 19 -10 24 -10 24 -8 -3z"/>
<path d="M388 500 c9 -16 21 -30 25 -30 5 0 -1 14 -13 30 -27 39 -34 39 -12 0z"/>
<path d="M550 483 c0 -4 5 -15 10 -23 8 -13 10 -13 10 2 0 9 -4 20 -10 23 -5
3 -10 3 -10 -2z"/>
<path d="M309 467 c19 -24 51 -41 51 -27 0 5 -5 10 -12 10 -6 0 -21 8 -32 18
-20 16 -20 16 -7 -1z"/>
<path d="M258 453 c7 -3 16 -2 19 1 4 3 -2 6 -13 5 -11 0 -14 -3 -6 -6z"/>
<path d="M391 446 c-7 -8 -8 -17 -3 -20 6 -3 12 3 15 14 6 24 4 25 -12 6z"/>
<path d="M523 433 c1 -17 5 -20 19 -12 10 5 18 12 18 15 0 3 -5 2 -11 -2 -6
-3 -15 0 -20 7 -6 10 -8 8 -6 -8z"/>
<path d="M308 413 c6 -2 18 -2 25 0 6 3 1 5 -13 5 -14 0 -19 -2 -12 -5z"/>
<path d="M459 369 c-24 -23 -35 -35 -24 -28 26 18 80 69 73 69 -3 0 -25 -19
-49 -41z"/>
<path d="M370 380 c-32 -7 -30 -7 20 -9 39 0 51 2 40 9 -8 5 -17 9 -20 9 -3
-1 -21 -5 -40 -9z"/>
<path d="M274 338 l-19 -23 23 19 c21 18 27 26 19 26 -2 0 -12 -10 -23 -22z"/>
<path d="M483 275 c0 -44 2 -61 4 -37 2 23 2 59 0 80 -2 20 -4 1 -4 -43z"/>
<path d="M329 273 c-13 -16 -12 -17 4 -4 9 7 17 15 17 17 0 8 -8 3 -21 -13z"/>
<path d="M268 233 c7 -3 16 -2 19 1 4 3 -2 6 -13 5 -11 0 -14 -3 -6 -6z"/>
<path d="M1110 495 c0 -60 2 -61 63 -44 33 9 37 13 37 44 0 39 -20 55 -69 55
-31 0 -31 0 -31 -55z"/>
<path d="M1756 456 c-15 -32 -25 -60 -23 -63 3 -2 27 -3 54 -1 l50 3 -28 60
-27 60 -26 -59z"/>
<path d="M2674 478 l-41 -93 43 -3 c24 -2 64 -2 88 0 l45 3 -41 93 c-23 50
-44 92 -47 92 -3 0 -25 -42 -47 -92z"/>
</g>
</svg>
